<svg width="150" height="99" viewBox="0 0 150 99" fill="none" xmlns="http://www.w3.org/2000/svg">
<g clip-path="url(#clip0_4001_385)">
<path d="M66.632 0.769165H144.241C146.948 0.769165 149.142 2.95532 149.142 5.65207V33.3219H66.632V0.769165Z" fill="#C0BDBD"/>
<path d="M66.632 0.769165H15.1653C12.4582 0.769165 10.2637 2.95532 10.2637 5.65207V33.3219H66.632V0.769165Z" fill="#B5B5B5"/>
<path d="M66.632 98.4274H15.1653C12.4582 98.4274 10.2637 96.2414 10.2637 93.5444V65.8746H66.632V98.4274Z" fill="#DFDCDC"/>
<path d="M66.632 98.4274H144.241C146.948 98.4274 149.142 96.2414 149.142 93.5444V65.8746H66.632V98.4274Z" fill="#EBEBEB"/>
<path d="M149.142 33.3219H66.632V65.8746H149.142V33.3219Z" fill="#DEDEDE"/>
<path d="M66.632 33.3219H10.2637V65.8746H66.632V33.3219Z" fill="#C2C2C2"/>
<path d="M53.561 19.4869H2.91125C1.55771 19.4869 0.460449 20.58 0.460449 21.9284V77.268C0.460449 78.6164 1.55771 79.7095 2.91125 79.7095H53.561C54.9146 79.7095 56.0118 78.6164 56.0118 77.268V21.9284C56.0118 20.58 54.9146 19.4869 53.561 19.4869Z" fill="#212121"/>
<path d="M19.2395 69.1299L33.036 39.0885H14.9171V32.5796H41.2787V37.4363L27.3817 69.1299H19.2395Z" fill="white"/>
<path d="M98.1476 61.8055H79.9194V58.4508L91.6636 41.6778H80.2377V37.4053H97.829V40.7431L86.1011 57.5329H98.1476V61.8055ZM104.453 61.8055V37.4053H109.646V61.8055H104.453ZM123.407 48.8878H125.115C126.712 48.8878 127.908 48.5761 128.701 47.9531C129.494 47.3189 129.89 46.401 129.89 45.1993C129.89 43.9865 129.555 43.0908 128.885 42.5123C128.226 41.9337 127.188 41.6445 125.769 41.6445H123.407V48.8878ZM135.134 45.0157C135.134 47.6416 134.307 49.6499 132.655 51.0407C131.013 52.4314 128.673 53.1268 125.635 53.1268H123.407V61.8055H118.213V37.4053H126.037C129.008 37.4053 131.264 38.045 132.806 39.3246C134.358 40.593 135.134 42.49 135.134 45.0157Z" fill="#353535"/>
</g>
<defs>
<clipPath id="clip0_4001_385">
<rect width="148.682" height="97.6581" fill="white" transform="translate(0.460449 0.769165)"/>
</clipPath>
</defs>
</svg>
